<?xml version="1.0" encoding="utf-8"?>
<!-- Generator: Adobe Illustrator 19.0.0, SVG Export Plug-In . SVG Version: 6.00 Build 0)  -->
<svg version="1.1" id="Layer_1" xmlns="http://www.w3.org/2000/svg" xmlns:xlink="http://www.w3.org/1999/xlink" x="0px" y="0px"
	 viewBox="-114 35.5 372.5 133.5" enable-background="new -114 35.5 372.5 133.5" xml:space="preserve">
<path fill="#FFFFFF" stroke="#00A6E3" stroke-width="3" stroke-miterlimit="10" d="M192.1,161.8H-47.4c-32.9,0-59.9-26.9-59.9-59.9
	v0C-107.3,69-80.3,42-47.4,42h239.5c32.9,0,59.9,26.9,59.9,59.9v0C251.9,134.8,225,161.8,192.1,161.8z"/>
<path fill="#1A459C" d="M-23.5,116.2h-47.9V66.1h7.2v42.9h40.7V116.2z"/>
<path fill="#1A459C" d="M40.2,116.2H33v-14.3H-7v-7.1h40V73.3H7.3c-2.4,0-4.8,0.5-6.9,1.4s-4.1,2.2-5.7,3.8
	c-1.6,1.6-2.9,3.5-3.8,5.7c-0.9,2.2-1.4,4.5-1.4,7v25.1h-7.2V91.2c0-2.3,0.3-4.5,0.9-6.7c0.6-2.1,1.4-4.1,2.5-6
	c1.1-1.9,2.4-3.5,3.9-5.1c1.5-1.5,3.2-2.8,5.1-3.9c1.9-1.1,3.8-1.9,6-2.5c2.1-0.6,4.3-0.9,6.6-0.9h32.8V116.2z"/>
<path fill="#1A459C" d="M165.3,116.2h-51.8V66.1h51.8v7.2h-44.7v35.8h44.7V116.2z M159.2,94.8h-35v-7.2h35V94.8z"/>
<path fill="#1A459C" d="M222.1,116.2h-47.9V66.1h7.2v42.9h40.7V116.2z"/>
<path fill="#1A459C" d="M108.2,102.2c0,2-0.4,3.9-1.1,5.6c-0.8,1.7-1.8,3.2-3.1,4.5c-1.3,1.3-2.8,2.3-4.6,3.1s-3.6,1.1-5.6,1.1H59.9
	v-7.2h33.9c1,0,1.9-0.2,2.8-0.6c0.9-0.4,1.6-0.9,2.3-1.5c0.7-0.7,1.2-1.4,1.5-2.3c0.4-0.9,0.6-1.8,0.6-2.8c0-1-0.2-1.9-0.6-2.8
	c-0.4-0.9-0.9-1.6-1.5-2.3c-0.7-0.7-1.4-1.2-2.3-1.5c-0.9-0.4-1.8-0.6-2.8-0.6H59.9V88h26.8c1,0,1.9-0.2,2.8-0.6
	c0.9-0.4,1.6-0.9,2.3-1.5c0.7-0.7,1.2-1.4,1.5-2.3c0.4-0.9,0.6-1.8,0.6-2.8s-0.2-1.9-0.6-2.8c-0.4-0.9-0.9-1.6-1.5-2.3
	c-0.7-0.7-1.4-1.2-2.3-1.5c-0.9-0.4-1.8-0.6-2.8-0.6H56.3v42.9h-7.2V66.5h37.5c2,0,3.8,0.4,5.6,1.1c1.7,0.8,3.3,1.8,4.6,3.1
	c1.3,1.3,2.3,2.8,3.1,4.6c0.8,1.7,1.1,3.6,1.1,5.6c0,1.5-0.2,2.9-0.7,4.3c-0.4,1.3-1,2.6-1.8,3.7c1.4,0.5,2.7,1.2,3.9,2.1
	c1.2,0.9,2.2,1.9,3,3.1s1.5,2.5,2,3.9C107.9,99.2,108.2,100.7,108.2,102.2z"/>
<g>
	<path fill="#1A459C" d="M-62.7,139.2h-7.4l3.3-14.2h2.9l-2.7,11.7h4.5L-62.7,139.2z"/>
	<path fill="#00A6E3" d="M-58.2,139.5c-1,0-1.8-0.3-2.2-1c-0.5-0.7-0.7-1.6-0.7-2.8c0-1.6,0.4-3.1,1.2-4.6c0.4-0.7,1-1.3,1.7-1.8
		s1.5-0.7,2.4-0.7c1,0,2.4,0.2,4.3,0.5l1,0.2l-1.6,6.7l-0.6,3.2l-2.8,0.1c0.1-0.8,0.2-1.4,0.3-1.6c-0.6,0.8-1.2,1.3-2,1.6
		C-57.5,139.4-57.8,139.5-58.2,139.5z M-55.7,130.9c-0.5,0-1,0.3-1.4,0.8c-0.8,1-1.1,2.3-1.1,3.9c0,0.5,0.1,0.8,0.2,1.1
		c0.2,0.2,0.4,0.3,0.7,0.3c0.3,0,0.7-0.2,1.1-0.5s0.8-0.6,1-0.9l0.4-0.5l1-4C-54.7,131-55.4,130.9-55.7,130.9z"/>
	<path fill="#00A6E3" d="M-43.2,128.5c1.1,0,1.9,0.3,2.4,1c0.5,0.6,0.7,1.5,0.7,2.4c0,2.2-0.5,4-1.5,5.4c-1,1.4-2.3,2.1-4,2.1
		c-0.7,0-1.4-0.1-2.3-0.2c-0.8-0.1-1.5-0.2-2-0.4l-0.8-0.2l3.3-14.1h2.8l-1.1,5c0.3-0.3,0.7-0.5,1.2-0.7
		C-44,128.6-43.5,128.5-43.2,128.5z M-47.3,136.9c0.6,0.1,1.2,0.2,1.7,0.2s1-0.2,1.3-0.5s0.6-0.8,0.8-1.3c0.4-1.1,0.6-2.1,0.6-3
		c0-0.9-0.4-1.4-1.1-1.4c-0.3,0-0.6,0.1-1,0.3c-0.4,0.2-0.7,0.4-0.9,0.5l-0.4,0.3L-47.3,136.9z"/>
	<path fill="#00A6E3" d="M-36.3,135.9c0,0.4,0.1,0.6,0.4,0.8c0.3,0.2,0.6,0.3,1.1,0.3c1,0,1.9-0.1,2.9-0.2l0.5-0.1l-0.3,2.1
		c-1.3,0.4-2.6,0.6-3.8,0.6c-1.3,0-2.2-0.3-2.8-0.9s-0.9-1.4-0.9-2.5c0-1.1,0.1-2.1,0.3-2.9c0.2-0.9,0.6-1.6,1-2.3
		c0.4-0.7,1-1.2,1.8-1.7s1.6-0.6,2.6-0.6c2.4,0,3.6,1,3.6,3.1c0,1.3-0.4,2.2-1.3,2.7c-0.9,0.5-2.4,0.8-4.4,0.8h-0.7
		C-36.3,135.3-36.3,135.6-36.3,135.9z M-35,133.1c1,0,1.6-0.1,2-0.3c0.4-0.2,0.6-0.6,0.6-1.1c0-0.6-0.3-0.9-1-0.9
		c-1.2,0-2,0.8-2.4,2.3H-35z"/>
	<path fill="#00A6E3" d="M-29.7,139.2l3.4-14.6h2.8l-3.4,14.6H-29.7z"/>
	<path fill="#1A459C" d="M-20.9,139.2l6.4-14.2h5l-0.4,14.2h-2.9l0.1-2.5h-4.1l-1.1,2.5H-20.9z M-12.8,127.5l-3,6.7h3.1l0.3-6.7
		H-12.8z"/>
	<path fill="#00A6E3" d="M-0.9,128.5c1.7,0,2.5,1,2.5,2.9c0,0.5-0.1,1.4-0.4,2.6L0,139.2h-2.8l1.1-4.9c0.2-1,0.4-1.8,0.4-2.2
		s-0.1-0.7-0.2-0.9C-1.5,131-1.7,131-2,131c-0.5,0-1.1,0.3-1.8,0.9l-0.3,0.3l-1.6,7h-2.8l2.4-10.4h2.7l-0.1,1
		c0.3-0.3,0.7-0.6,1.3-0.9C-1.8,128.7-1.3,128.5-0.9,128.5z"/>
	<path fill="#00A6E3" d="M5.7,139.5c-1,0-1.7-0.3-2.2-1c-0.5-0.6-0.8-1.5-0.8-2.7s0.2-2.3,0.6-3.4c0.4-1.1,1-2,1.8-2.7
		c0.8-0.7,1.8-1.1,2.9-1.1c0.5,0,1.2,0.1,2.1,0.3l0.4,0.1l1-4.4h2.8l-3.4,14.6H8.2l0.2-1.1c-0.3,0.3-0.7,0.6-1.2,0.9
		C6.6,139.3,6.1,139.5,5.7,139.5z M10,131.2c-0.8-0.2-1.5-0.3-2-0.3c-0.5,0-1,0.3-1.3,0.8c-0.4,0.5-0.7,1.2-0.8,1.9
		s-0.3,1.4-0.3,2.1c0,0.9,0.4,1.3,1.1,1.3c0.2,0,0.5-0.1,0.9-0.4c0.4-0.2,0.7-0.5,1-0.8l0.4-0.4L10,131.2z"/>
	<path fill="#1A459C" d="M26.2,125c2.5,0,3.7,1,3.7,3.1c0,0.9-0.2,1.6-0.6,2.2c-0.4,0.6-1,1.1-1.8,1.6c0.5,0.3,0.9,0.7,1.1,1
		c0.2,0.4,0.3,0.8,0.3,1.4c0,1.4-0.5,2.5-1.4,3.5c-1,0.9-2.3,1.4-4.1,1.4H18l3.3-14.2H26.2z M24.6,133.3h-2.4l-0.8,3.5h2.5
		c0.6,0,1.1-0.2,1.5-0.6c0.4-0.4,0.6-1,0.6-1.7C25.9,133.7,25.5,133.3,24.6,133.3z M25.7,127.5h-2.1l-0.8,3.4h2.1
		c0.6,0,1-0.2,1.4-0.6c0.4-0.4,0.6-0.9,0.6-1.6C27,127.9,26.5,127.5,25.7,127.5z"/>
	<path fill="#00A6E3" d="M33.2,139.5c-1,0-1.8-0.3-2.2-1c-0.5-0.7-0.7-1.6-0.7-2.8c0-1.6,0.4-3.1,1.2-4.6c0.4-0.7,1-1.3,1.7-1.8
		s1.5-0.7,2.4-0.7c1,0,2.4,0.2,4.3,0.5l1,0.2l-1.6,6.7l-0.6,3.2l-2.8,0.1c0.1-0.8,0.2-1.4,0.3-1.6c-0.6,0.8-1.2,1.3-2,1.6
		C33.8,139.4,33.5,139.5,33.2,139.5z M35.6,130.9c-0.5,0-1,0.3-1.4,0.8c-0.8,1-1.1,2.3-1.1,3.9c0,0.5,0.1,0.8,0.2,1.1
		c0.2,0.2,0.4,0.3,0.7,0.3c0.3,0,0.7-0.2,1.1-0.5s0.8-0.6,1-0.9l0.4-0.5l1-4C36.6,131,36,130.9,35.6,130.9z"/>
	<path fill="#00A6E3" d="M40.7,139.2l2.4-10.4h2.8l-0.4,1.5c0.4-0.4,1-0.7,1.6-1.1s1.2-0.6,1.7-0.6l-0.8,2.9c-0.7,0.2-1.5,0.5-2.4,1
		l-0.5,0.2l-1.5,6.6H40.7z"/>
	<path fill="#00A6E3" d="M53.7,128.5c0.8,0,1.7,0.2,2.6,0.5l0.5,0.1l-0.7,2c-1.1-0.2-1.9-0.3-2.5-0.3c-0.8,0-1.4,0.4-1.8,1.3
		c-0.4,0.9-0.6,1.9-0.6,3c0,1.2,0.5,1.7,1.6,1.7l2.2-0.2l-0.2,2.1c-1,0.3-2,0.5-3,0.5c-1,0-1.8-0.3-2.5-1c-0.6-0.6-0.9-1.5-0.9-2.7
		c0-2.1,0.5-3.9,1.4-5.2C50.6,129.2,52,128.5,53.7,128.5z"/>
	<path fill="#00A6E3" d="M61.9,128.6c2.7,0,4.1,1.3,4.1,3.9c0,1.1-0.2,2.2-0.6,3.2c-0.4,1-1,1.9-1.8,2.6c-0.8,0.7-1.8,1.1-2.9,1.1
		c-2.7,0-4.1-1.3-4.1-3.9c0-1.1,0.2-2.2,0.6-3.2c0.4-1,1-1.9,1.8-2.6C59.9,128.9,60.9,128.6,61.9,128.6z M60.8,137.1
		c0.8,0,1.4-0.5,1.8-1.4s0.7-2,0.7-3.2c0-1-0.4-1.5-1.3-1.5c-0.8,0-1.4,0.5-1.8,1.4s-0.7,2-0.7,3.2
		C59.4,136.6,59.9,137.1,60.8,137.1z"/>
	<path fill="#00A6E3" d="M70,139.5c-1,0-1.7-0.3-2.2-1c-0.5-0.6-0.8-1.5-0.8-2.7s0.2-2.3,0.6-3.4c0.4-1.1,1-2,1.8-2.7
		c0.8-0.7,1.8-1.1,2.9-1.1c0.5,0,1.2,0.1,2.1,0.3l0.4,0.1l1-4.4h2.8l-3.4,14.6h-2.7l0.2-1.1c-0.3,0.3-0.7,0.6-1.2,0.9
		C70.9,139.3,70.4,139.5,70,139.5z M74.2,131.2c-0.8-0.2-1.5-0.3-2-0.3c-0.5,0-1,0.3-1.3,0.8c-0.4,0.5-0.7,1.2-0.8,1.9
		s-0.3,1.4-0.3,2.1c0,0.9,0.4,1.3,1.1,1.3c0.2,0,0.5-0.1,0.9-0.4c0.4-0.2,0.7-0.5,1-0.8l0.4-0.4L74.2,131.2z"/>
	<path fill="#00A6E3" d="M80.8,135.9c0,0.4,0.1,0.6,0.4,0.8c0.3,0.2,0.6,0.3,1.1,0.3c1,0,1.9-0.1,2.9-0.2l0.5-0.1l-0.3,2.1
		c-1.3,0.4-2.6,0.6-3.8,0.6c-1.3,0-2.2-0.3-2.8-0.9s-0.9-1.4-0.9-2.5c0-1.1,0.1-2.1,0.3-2.9c0.2-0.9,0.6-1.6,1-2.3
		c0.4-0.7,1-1.2,1.8-1.7s1.6-0.6,2.6-0.6c2.4,0,3.6,1,3.6,3.1c0,1.3-0.4,2.2-1.3,2.7c-0.9,0.5-2.4,0.8-4.4,0.8h-0.7
		C80.8,135.3,80.8,135.6,80.8,135.9z M82,133.1c1,0,1.6-0.1,2-0.3c0.4-0.2,0.6-0.6,0.6-1.1c0-0.6-0.3-0.9-1-0.9
		c-1.2,0-2,0.8-2.4,2.3H82z"/>
	<path fill="#1A459C" d="M92.2,139.2l3.3-14.2h8.3l-0.6,2.5h-5.4l-0.8,3.3h4.3l-0.6,2.5h-4.3l-0.8,3.3h5.4l-0.6,2.5H92.2z"/>
	<path fill="#00A6E3" d="M103.8,128.8h2.8l0.8,3.2l2.2-3.2h2.8l-4.1,5.4l1.7,5h-2.8l-0.8-3.1l-2.1,3.1h-2.9l4.1-5.2L103.8,128.8z"/>
	<path fill="#00A6E3" d="M117.1,128.5c0.8,0,1.7,0.2,2.6,0.5l0.5,0.1l-0.7,2c-1.1-0.2-1.9-0.3-2.5-0.3c-0.8,0-1.4,0.4-1.8,1.3
		c-0.4,0.9-0.6,1.9-0.6,3c0,1.2,0.5,1.7,1.6,1.7l2.2-0.2l-0.2,2.1c-1,0.3-2,0.5-3,0.5c-1,0-1.8-0.3-2.5-1c-0.6-0.6-0.9-1.5-0.9-2.7
		c0-2.1,0.5-3.9,1.4-5.2C114,129.2,115.3,128.5,117.1,128.5z"/>
	<path fill="#00A6E3" d="M122.9,135.9c0,0.4,0.1,0.6,0.4,0.8c0.3,0.2,0.6,0.3,1.1,0.3c1,0,1.9-0.1,2.9-0.2l0.5-0.1l-0.3,2.1
		c-1.3,0.4-2.6,0.6-3.8,0.6c-1.3,0-2.2-0.3-2.8-0.9s-0.9-1.4-0.9-2.5c0-1.1,0.1-2.1,0.3-2.9c0.2-0.9,0.6-1.6,1-2.3
		c0.4-0.7,1-1.2,1.8-1.7s1.6-0.6,2.6-0.6c2.4,0,3.6,1,3.6,3.1c0,1.3-0.4,2.2-1.3,2.7c-0.9,0.5-2.4,0.8-4.4,0.8h-0.7
		C122.9,135.3,122.9,135.6,122.9,135.9z M124.1,133.1c1,0,1.6-0.1,2-0.3c0.4-0.2,0.6-0.6,0.6-1.1c0-0.6-0.3-0.9-1-0.9
		c-1.2,0-2,0.8-2.4,2.3H124.1z"/>
	<path fill="#00A6E3" d="M129.4,139.2l2.4-10.4h2.8l-0.4,1.5c0.4-0.4,1-0.7,1.6-1.1s1.2-0.6,1.7-0.6l-0.8,2.9
		c-0.7,0.2-1.5,0.5-2.4,1l-0.5,0.2l-1.5,6.6H129.4z"/>
	<path fill="#00A6E3" d="M144,128.5c1,0,1.8,0.3,2.3,1c0.5,0.6,0.8,1.5,0.8,2.7c0,1.1-0.2,2.3-0.6,3.4c-0.4,1.1-1,2-1.8,2.8
		s-1.8,1.1-2.9,1.1c-0.6,0-1.3-0.1-2.1-0.3l-0.4-0.1l-1.1,4.6h-2.8l3.4-14.8h2.7l-0.2,1.1c0.3-0.3,0.8-0.7,1.3-0.9
		C143.1,128.7,143.6,128.5,144,128.5z M143.1,130.9c-0.2,0-0.5,0.1-0.9,0.4c-0.4,0.3-0.7,0.5-1,0.8l-0.4,0.4l-1,4.4
		c0.8,0.2,1.5,0.3,2,0.3s1-0.3,1.3-0.8c0.4-0.5,0.7-1.2,0.8-1.9s0.3-1.4,0.3-2.1C144.2,131.4,143.8,130.9,143.1,130.9z"/>
	<path fill="#00A6E3" d="M151.2,136.5c0,0.4,0.2,0.6,0.6,0.6l1.4-0.1l-0.2,2c-0.7,0.3-1.5,0.5-2.3,0.5c-0.8,0-1.4-0.2-1.8-0.6
		s-0.6-0.9-0.6-1.5c0-0.6,0.1-1.3,0.3-2.2l0.9-3.9h-1.1l0.6-2.4h1.1l0.6-2.7h2.8l-0.6,2.7h2.2l-0.6,2.4h-2.2l-1,4.2
		C151.3,135.8,151.2,136.2,151.2,136.5z"/>
	<path fill="#1A459C" d="M166.4,139.2h-7.4l3.3-14.2h2.9l-2.7,11.7h4.5L166.4,139.2z"/>
	<path fill="#00A6E3" d="M173.3,128.6c2.7,0,4.1,1.3,4.1,3.9c0,1.1-0.2,2.2-0.6,3.2c-0.4,1-1,1.9-1.8,2.6c-0.8,0.7-1.8,1.1-2.9,1.1
		c-2.7,0-4.1-1.3-4.1-3.9c0-1.1,0.2-2.2,0.6-3.2c0.4-1,1-1.9,1.8-2.6C171.3,128.9,172.3,128.6,173.3,128.6z M172.2,137.1
		c0.8,0,1.4-0.5,1.8-1.4s0.7-2,0.7-3.2c0-1-0.4-1.5-1.3-1.5c-0.8,0-1.4,0.5-1.8,1.4s-0.7,2-0.7,3.2
		C170.8,136.6,171.3,137.1,172.2,137.1z"/>
	<path fill="#00A6E3" d="M183.9,128.5c0.8,0,1.7,0.2,2.6,0.5l0.5,0.1l-0.7,2c-1.1-0.2-1.9-0.3-2.5-0.3c-0.8,0-1.4,0.4-1.8,1.3
		c-0.4,0.9-0.6,1.9-0.6,3c0,1.2,0.5,1.7,1.6,1.7l2.2-0.2l-0.2,2.1c-1,0.3-2,0.5-3,0.5c-1,0-1.8-0.3-2.5-1c-0.6-0.6-0.9-1.5-0.9-2.7
		c0-2.1,0.5-3.9,1.4-5.2C180.8,129.2,182.1,128.5,183.9,128.5z"/>
	<path fill="#00A6E3" d="M189.8,139.5c-1,0-1.8-0.3-2.2-1c-0.5-0.7-0.7-1.6-0.7-2.8c0-1.6,0.4-3.1,1.2-4.6c0.4-0.7,1-1.3,1.7-1.8
		s1.5-0.7,2.4-0.7c1,0,2.4,0.2,4.3,0.5l1,0.2l-1.6,6.7l-0.6,3.2l-2.8,0.1c0.1-0.8,0.2-1.4,0.3-1.6c-0.6,0.8-1.2,1.3-2,1.6
		C190.4,139.4,190.1,139.5,189.8,139.5z M192.2,130.9c-0.5,0-1,0.3-1.4,0.8c-0.8,1-1.1,2.3-1.1,3.9c0,0.5,0.1,0.8,0.2,1.1
		c0.2,0.2,0.4,0.3,0.7,0.3c0.3,0,0.7-0.2,1.1-0.5s0.8-0.6,1-0.9l0.4-0.5l1-4C193.2,131,192.6,130.9,192.2,130.9z"/>
	<path fill="#00A6E3" d="M201.2,136.5c0,0.4,0.2,0.6,0.6,0.6l1.4-0.1l-0.2,2c-0.7,0.3-1.5,0.5-2.3,0.5c-0.8,0-1.4-0.2-1.8-0.6
		s-0.6-0.9-0.6-1.5c0-0.6,0.1-1.3,0.3-2.2l0.9-3.9h-1.1l0.6-2.4h1.1l0.6-2.7h2.8l-0.6,2.7h2.2l-0.6,2.4h-2.2l-1,4.2
		C201.2,135.8,201.2,136.2,201.2,136.5z"/>
	<path fill="#00A6E3" d="M210,128.6c2.7,0,4.1,1.3,4.1,3.9c0,1.1-0.2,2.2-0.6,3.2c-0.4,1-1,1.9-1.8,2.6c-0.8,0.7-1.8,1.1-2.9,1.1
		c-2.7,0-4.1-1.3-4.1-3.9c0-1.1,0.2-2.2,0.6-3.2c0.4-1,1-1.9,1.8-2.6C208,128.9,208.9,128.6,210,128.6z M208.8,137.1
		c0.8,0,1.4-0.5,1.8-1.4s0.7-2,0.7-3.2c0-1-0.4-1.5-1.3-1.5c-0.8,0-1.4,0.5-1.8,1.4s-0.7,2-0.7,3.2
		C207.5,136.6,207.9,137.1,208.8,137.1z"/>
	<path fill="#00A6E3" d="M214.6,139.2l2.4-10.4h2.8l-0.4,1.5c0.4-0.4,1-0.7,1.6-1.1s1.2-0.6,1.7-0.6l-0.8,2.9
		c-0.7,0.2-1.5,0.5-2.4,1l-0.5,0.2l-1.5,6.6H214.6z"/>
</g>
</svg>
