<?xml version="1.0" encoding="utf-8"?>
<!-- Generator: Adobe Illustrator 19.0.0, SVG Export Plug-In . SVG Version: 6.00 Build 0)  -->
<!DOCTYPE svg PUBLIC "-//W3C//DTD SVG 1.1//EN" "http://www.w3.org/Graphics/SVG/1.1/DTD/svg11.dtd">
<svg version="1.1" id="Layer_1" xmlns="http://www.w3.org/2000/svg" xmlns:xlink="http://www.w3.org/1999/xlink" x="0px" y="0px"
	 width="87px" height="97.5px" viewBox="0 0 87 97.5" style="enable-background:new 0 0 87 97.5;" xml:space="preserve">
<style type="text/css">
	.st0{fill:#444444;}
	.st1{fill:#FFFFFF;}
	.st2{fill:none;stroke:#929497;stroke-width:0.8839;stroke-miterlimit:10;}
	.st3{fill:#929497;}
	.st4{fill:#40B449;}
</style>
<g id="XMLID_306_">
	<g id="XMLID_314_">
		<path id="XMLID_15_" class="st0" d="M83.374,21.943L46.788,0.821c-1.843-1.064-4.732-1.065-6.576,0L3.626,21.943
			c-1.844,1.065-3.288,3.566-3.288,5.695v42.245c0,2.129,1.444,4.631,3.288,5.695l36.585,21.123
			c0.922,0.532,2.105,0.798,3.288,0.798c1.183,0,2.366-0.266,3.288-0.798l36.586-21.123c1.844-1.065,3.288-3.566,3.288-5.695V27.638
			C86.662,25.509,85.217,23.008,83.374,21.943z"/>
	</g>
	<path id="XMLID_14_" class="st1" d="M83.715,69.884c0,1.097-0.865,2.595-1.815,3.144L45.315,94.15c-0.95,0.549-2.68,0.548-3.63,0
		L5.1,73.027c-0.95-0.548-1.815-2.047-1.815-3.144V27.638c0-1.097,0.865-2.595,1.815-3.144L41.685,3.372
		C42.16,3.098,42.83,2.961,43.5,2.961c0.67,0,1.34,0.137,1.815,0.411l36.586,21.123c0.95,0.548,1.815,2.047,1.815,3.144V69.884z"/>
	<g id="XMLID_311_">
		<path id="XMLID_313_" class="st1" d="M6.253,26.191L42.577,5.22c0.571-0.33,1.274-0.33,1.845,0l36.324,20.972
			c0.571,0.33,0.923,0.939,0.923,1.598v41.943c0,0.659-0.352,1.268-0.923,1.598L44.423,92.302c-0.571,0.33-1.274,0.33-1.845,0
			L6.253,71.331c-0.571-0.33-0.923-0.939-0.923-1.598V27.79C5.331,27.13,5.683,26.521,6.253,26.191z"/>
		<path id="XMLID_312_" class="st2" d="M6.253,26.191L42.577,5.22c0.571-0.33,1.274-0.33,1.845,0l36.324,20.972
			c0.571,0.33,0.923,0.939,0.923,1.598v41.943c0,0.659-0.352,1.268-0.923,1.598L44.423,92.302c-0.571,0.33-1.274,0.33-1.845,0
			L6.253,71.331c-0.571-0.33-0.923-0.939-0.923-1.598V27.79C5.331,27.13,5.683,26.521,6.253,26.191z"/>
	</g>
	<g id="XMLID_310_">
		<path id="XMLID_1_" class="st1" d="M65.214,42.647L37.386,70.475c-4.29,4.29-11.31,4.29-15.6,0l0,0c-4.29-4.29-4.29-11.31,0-15.6
			l27.827-27.827c4.29-4.29,11.31-4.29,15.6,0l0,0C69.504,31.337,69.504,38.357,65.214,42.647z"/>
		<path id="XMLID_5_" class="st3" d="M29.586,75.034c-3.313,0-6.421-1.282-8.749-3.611c-2.328-2.328-3.611-5.435-3.611-8.749
			c0-3.314,1.282-6.421,3.611-8.749l27.827-27.827c4.824-4.824,12.674-4.824,17.498,0s4.824,12.673,0,17.498L38.335,71.424
			C36.007,73.752,32.9,75.034,29.586,75.034z M57.414,25.163c-2.482,0-4.962,0.944-6.852,2.833L22.735,55.823
			c-1.821,1.822-2.825,4.255-2.825,6.852c0,2.597,1.003,5.03,2.825,6.851c1.821,1.822,4.255,2.825,6.851,2.825
			c2.597,0,5.03-1.003,6.852-2.825l27.828-27.827c3.778-3.778,3.778-9.925,0-13.703C62.376,26.107,59.895,25.163,57.414,25.163z"/>
	</g>
	<path id="XMLID_309_" class="st3" d="M66.834,25.279"/>
	<path id="XMLID_308_" class="st4" d="M41.072,44.397c-3.51,3.578-14.265,14.538-15.25,15.523c-1.915,1.915-0.958,1.694-2.136,3.462
		c0,0-1.264-1.829,0.663-3.757L40.024,43.4l-1.673-1.592L23.407,56.753c-3.287,3.287-3.287,8.667,0,11.954h0
		c3.287,3.287,8.667,3.287,11.954,0l15.24-15.24L41.072,44.397z"/>
	<path id="XMLID_307_" class="st3" d="M63.203,37.528L63.203,37.528c0.952,0,1.731-0.779,1.731-1.731l0,0
		c0-0.952-0.779-1.731-1.731-1.731h0c-0.952,0-1.731,0.779-1.731,1.731l0,0C61.472,36.749,62.251,37.528,63.203,37.528z"/>
</g>
</svg>
